<svg width="154" height="154" viewBox="0 0 154 154" fill="none" xmlns="http://www.w3.org/2000/svg">
<rect width="154" height="154" rx="30" fill="url(#paint0_linear_115_299)"/>
<path d="M62.9225 52.125C61.2144 52.1245 59.5369 52.5838 58.0619 53.4558C56.5869 54.3278 55.3675 55.5811 54.5288 57.0873C53.69 58.5935 53.262 60.2984 53.2887 62.0272C53.3154 63.756 53.7957 65.4465 54.6805 66.9255C52.4829 67.3553 50.5017 68.5462 49.077 70.2936C47.6523 72.041 46.873 74.236 46.873 76.5016C46.873 78.7673 47.6523 80.9622 49.077 82.7097C50.5017 84.4571 52.4829 85.6479 54.6805 86.0777M62.9225 52.125C62.9225 49.9701 63.7682 47.9035 65.2735 46.3798C66.7789 44.856 68.8205 44 70.9494 44C73.0783 44 75.1199 44.856 76.6253 46.3798C78.1306 47.9035 78.9763 49.9701 78.9763 52.125V57M62.9225 52.125C62.9225 54.7835 64.1844 57.143 66.1333 58.625M54.6805 86.0777C53.7965 87.5566 53.3168 89.2468 53.2906 90.9751C53.2644 92.7035 53.6925 94.4078 54.5312 95.9135C55.3698 97.4192 56.5889 98.6721 58.0634 99.5439C59.5379 100.416 61.2149 100.875 62.9225 100.875C62.9225 103.03 63.7682 105.097 65.2735 106.62C66.7789 108.144 68.8205 109 70.9494 109C73.0783 109 75.1199 108.144 76.6253 106.62C78.1306 105.097 78.9763 103.03 78.9763 100.875V96M54.6805 86.0777C55.8334 84.1481 57.6114 82.6793 59.7118 81.9275M87.0032 86.25V92.75M96.6354 86.25V92.75M87.0032 60.25V66.75M96.6354 60.25V66.75M82.187 71.625H75.7655M82.187 81.375H75.7655M107.873 71.625H101.452M107.873 81.375H101.452M95.03 66.75H88.6085C85.5808 66.75 84.0685 66.75 83.1278 67.7023C82.187 68.6545 82.187 70.1852 82.187 73.25V79.75C82.187 82.8148 82.187 84.3455 83.1278 85.2977C84.0685 86.25 85.5808 86.25 88.6085 86.25H95.03C98.0578 86.25 99.57 86.25 100.511 85.2977C101.452 84.3455 101.452 82.8148 101.452 79.75V73.25C101.452 70.1852 101.452 68.6545 100.511 67.7023C99.57 66.75 98.0578 66.75 95.03 66.75Z" stroke="white" stroke-width="6" stroke-linecap="round" stroke-linejoin="round"/>
<defs>
<linearGradient id="paint0_linear_115_299" x1="0" y1="0" x2="154" y2="154" gradientUnits="userSpaceOnUse">
<stop offset="0.495192" stop-color="#7F58FA"/>
<stop offset="0.903846" stop-color="#BFB1D8"/>
</linearGradient>
</defs>
</svg>
