<svg width="154" height="154" viewBox="0 0 154 154" fill="none" xmlns="http://www.w3.org/2000/svg">
<rect width="154" height="154" rx="30" fill="url(#paint0_linear_115_297)"/>
<path d="M111.121 79.1213C112.293 77.9497 112.293 76.0503 111.121 74.8787L92.0294 55.7868C90.8579 54.6152 88.9584 54.6152 87.7868 55.7868C86.6152 56.9584 86.6152 58.8579 87.7868 60.0294L104.757 77L87.7868 93.9706C86.6152 95.1421 86.6152 97.0416 87.7868 98.2132C88.9584 99.3848 90.8579 99.3848 92.0294 98.2132L111.121 79.1213ZM106 77V80H109V77V74H106V77Z" fill="white"/>
<path d="M42.8787 74.8787C41.7071 76.0503 41.7071 77.9497 42.8787 79.1213L61.9706 98.2132C63.1421 99.3848 65.0416 99.3848 66.2132 98.2132C67.3848 97.0416 67.3848 95.1421 66.2132 93.9706L49.2426 77L66.2132 60.0294C67.3848 58.8579 67.3848 56.9584 66.2132 55.7868C65.0416 54.6152 63.1421 54.6152 61.9706 55.7868L42.8787 74.8787ZM48 77V74H45V77V80H48V77Z" fill="white"/>
<defs>
<linearGradient id="paint0_linear_115_297" x1="0" y1="0" x2="154" y2="154" gradientUnits="userSpaceOnUse">
<stop offset="0.495192" stop-color="#43B991"/>
<stop offset="0.899038" stop-color="#41B7C6"/>
</linearGradient>
</defs>
</svg>
