<svg width="5000" height="2000" viewBox="0 0 5000 2000" fill="none" xmlns="http://www.w3.org/2000/svg">
<rect width="5000" height="2000" fill="#33EE87"/>
<path d="M1362.19 1685H1318.6L1397.97 1459.55H1448.39L1527.87 1685H1484.27L1424.06 1505.78H1422.3L1362.19 1685ZM1363.62 1596.6H1482.51V1629.41H1363.62V1596.6ZM1873.25 1535.61H1832.08C1830.9 1528.86 1828.74 1522.88 1825.58 1517.67C1822.42 1512.39 1818.5 1507.91 1813.8 1504.24C1809.1 1500.57 1803.75 1497.82 1797.73 1495.98C1791.78 1494.08 1785.36 1493.12 1778.46 1493.12C1766.21 1493.12 1755.35 1496.2 1745.88 1502.37C1736.41 1508.46 1729 1517.41 1723.64 1529.23C1718.28 1540.97 1715.61 1555.32 1715.61 1572.27C1715.61 1589.52 1718.28 1604.05 1723.64 1615.87C1729.07 1627.61 1736.48 1636.49 1745.88 1642.51C1755.35 1648.45 1766.17 1651.42 1778.35 1651.42C1785.11 1651.42 1791.42 1650.54 1797.29 1648.78C1803.23 1646.95 1808.55 1644.27 1813.25 1640.75C1818.02 1637.22 1822.02 1632.89 1825.25 1627.76C1828.55 1622.62 1830.83 1616.75 1832.08 1610.14L1873.25 1610.36C1871.71 1621.08 1868.37 1631.13 1863.23 1640.53C1858.17 1649.92 1851.52 1658.21 1843.3 1665.4C1835.08 1672.52 1825.47 1678.1 1814.46 1682.14C1803.45 1686.1 1791.23 1688.08 1777.8 1688.08C1757.99 1688.08 1740.3 1683.5 1724.74 1674.32C1709.18 1665.15 1696.93 1651.9 1687.97 1634.58C1679.02 1617.26 1674.54 1596.49 1674.54 1572.27C1674.54 1547.98 1679.06 1527.21 1688.08 1509.96C1697.11 1492.64 1709.4 1479.4 1724.96 1470.22C1740.52 1461.05 1758.13 1456.46 1777.8 1456.46C1790.35 1456.46 1802.02 1458.22 1812.81 1461.75C1823.6 1465.27 1833.21 1470.44 1841.65 1477.27C1850.09 1484.02 1857.03 1492.31 1862.46 1502.15C1867.96 1511.91 1871.56 1523.06 1873.25 1535.61ZM2070.18 1685H2026.58L2105.95 1459.55H2156.37L2235.85 1685H2192.26L2132.04 1505.78H2130.28L2070.18 1685ZM2071.61 1596.6H2190.5V1629.41H2071.61V1596.6ZM2475.25 1685H2398.85V1459.55H2476.79C2499.17 1459.55 2518.4 1464.06 2534.48 1473.09C2550.62 1482.04 2563.02 1494.92 2571.68 1511.73C2580.34 1528.53 2584.67 1548.64 2584.67 1572.05C2584.67 1595.54 2580.31 1615.72 2571.57 1632.6C2562.91 1649.48 2550.4 1662.43 2534.03 1671.46C2517.74 1680.49 2498.15 1685 2475.25 1685ZM2439.69 1649.66H2473.27C2488.97 1649.66 2502.07 1646.8 2512.57 1641.08C2523.06 1635.28 2530.95 1626.65 2536.24 1615.21C2541.52 1603.68 2544.16 1589.3 2544.16 1572.05C2544.16 1554.81 2541.52 1540.49 2536.24 1529.12C2530.95 1517.67 2523.14 1509.12 2512.79 1503.47C2502.51 1497.75 2489.74 1494.88 2474.48 1494.88H2439.69V1649.66ZM2756.78 1685V1459.55H2903.41V1493.78H2797.62V1554.99H2895.82V1589.23H2797.62V1650.76H2904.29V1685H2756.78ZM3078.38 1459.55H3128.36L3195.29 1622.91H3197.93L3264.86 1459.55H3314.84V1685H3275.65V1530.11H3273.56L3211.25 1684.34H3181.97L3119.66 1529.78H3117.57V1685H3078.38V1459.55ZM3477.21 1459.55H3523.33L3578.48 1559.28H3580.69L3635.84 1459.55H3681.96L3599.95 1600.89V1685H3559.22V1600.89L3477.21 1459.55Z" fill="#0B2031"/>
<path d="M4188 240C4193.52 240 4198 244.477 4198 250V484C4198 489.523 4193.52 494 4188 494H3907.95C3907.98 494.329 3908 494.662 3908 495V1275C3908 1280.52 3903.52 1285 3898 1285H3627C3621.48 1285 3617 1280.52 3617 1275V740.433C3617 737.811 3618.03 735.293 3619.87 733.423L3855.16 494H3331C3325.48 494 3321 489.523 3321 484V250C3321 244.477 3325.48 240 3331 240H4188Z" fill="#0B2031"/>
<path d="M2344.53 494C2341.37 494 2338.41 495.487 2336.52 498.012L2329.6 507.271C2328.3 509 2327.6 511.1 2327.6 513.259V885.358C2327.6 894.994 2339.89 899.055 2345.64 891.316L2512.7 666.131C2514.58 663.588 2517.56 662.089 2520.73 662.089H2950.54C2956.06 662.089 2960.54 666.566 2960.54 672.089V880.276C2960.54 885.799 2956.06 890.276 2950.54 890.276H2419.19C2416.03 890.276 2413.05 891.77 2411.17 894.305L2329.55 1003.95C2328.27 1005.67 2327.57 1007.77 2327.57 1009.92V1275C2327.57 1280.52 2323.1 1285 2317.57 1285H2082.1C2054.49 1285.27 2032 1263.01 2032 1235.43V887.286C2032 840.555 2045.91 798.808 2073.78 762.015L2396.24 326.514C2419.37 294.162 2449.57 270.51 2486.85 255.617C2514.03 244.773 2543.27 240 2572.5 240H3161C3166.52 240 3171 244.477 3171 250V484C3171 489.523 3166.52 494 3161 494H2344.53Z" fill="#0B2031"/>
<path d="M1050 255C1069.33 255 1085 270.67 1085 290V933C1085 974.421 1118.58 1008 1160 1008H1524C1565.42 1008 1599 974.421 1599 933V290C1599 270.67 1614.67 255 1634 255H1847C1866.33 255 1882 270.67 1882 290V1251H1881.98C1881.46 1269.87 1866 1285 1847 1285H1122C1103 1285 1087.54 1269.87 1087.02 1251H1087V1076C1087 1034.58 1053.42 1001 1012 1001H837C817.67 1001 802 985.33 802 966V290C802 270.67 817.67 255 837 255H1050Z" fill="#0B2031"/>
</svg>
